# xmcd CD database file
#
# Track frame offsets:
#	150
#	40605
#	111690
#	138125
#	163890
#
# Disc length: 2454 seconds
#
# Revision: 0
# Processed by: cddbd v1.5.2PL0 Copyright (c) Steve Scherf et al.
# Submitted via: CDex 1.51
#
DISCID=40099405
DTITLE=Jimmy Mcgriff - Friday The 13th Cook Country Jail
DYEAR=1900
DGENRE=Jazz
TTITLE0=Freedom Suite Part1
TTITLE1=Freedom Suite Part2
TTITLE2=Green Dolphin Street
TTITLE3=Everything Happens to Me
TTITLE4=Cherokee
EXTD=
EXTT0=
EXTT1=
EXTT2=
EXTT3=
EXTT4=
PLAYORDER=
